<svg xmlns="http://www.w3.org/2000/svg" viewBox="0 0 2048 2048" shape-rendering="geometricPrecision" image-rendering="optimizeQuality" fill-rule="evenodd"><path d="M1775.94 1024c-.001-207.698-84.15-395.697-220.195-531.745-136.086-136.086-324.09-220.257-531.743-220.257S628.344 356.17 492.26 492.255 272.002 816.34 272.002 1024s84.17 395.658 220.257 531.743S816.348 1776 1024.002 1776s395.658-84.17 531.745-220.257 220.257-324.09 220.257-531.743h-.063z"/><path d="M1533.68 805.973c-25.332-14.78-51.45-28.16-78.266-40.283-26.357-11.916-53.602-22.644-81.626-32.317-67.885-23.438-136.8-40.368-206.5-51.934-69.573-11.543-140.124-17.77-211.412-19.808-28.922-.828-57.83-.82-86.7.057a1429.45 1429.45 0 0 0-86.726 5.258c-27.73 2.53-54.888 5.666-81.253 9.638-26.83 4.042-53.702 9.04-80.628 15.266l-32.3 7.96c-11.134 2.96-21.978 6.103-32.33 9.515-17.4 5.732-31.67 16.917-41.54 31.165-9.957 14.372-15.357 31.894-14.844 50.063.522 18.482 6.842 35.602 17.426 49.38 10.64 13.848 25.582 24.36 43.273 29.538 8.06 2.357 16.084 3.4 24.113 3.3 8.036-.1 15.874-1.254 23.6-3.315l7.785-2.086c18.565-4.98 37.147-9.965 55.912-14.017 28.83-6.227 57.86-10.96 87.04-14.515 29.606-3.607 59.067-6.006 88.422-7.524a1354.87 1354.87 0 0 1 77.536-1.793c25.475.142 51.3 1.02 77.477 2.6a1321.22 1321.22 0 0 1 74.646 6.612 1279.67 1279.67 0 0 1 73.287 10.75c35.498 6.262 70.28 13.824 104.126 23.058 34.023 9.282 67.663 20.368 100.823 33.663 16.75 6.716 32.967 14.004 48.76 21.755s31.58 16.175 47.368 25.1c13.773 7.793 28.274 11.388 42.363 11.446a83.85 83.85 0 0 0 42.459-11.336c12.687-7.365 23.448-18.043 30.9-31.198 6.893-12.184 10.93-26.466 10.994-42.17l-.125-2.062c-.085-.656-.273-2.45-.463-4.277-.403-3.834-.806-7.67-1.765-11.928-2.802-12.466-7.923-23.26-15.116-32.578-7.12-9.223-16.084-16.815-26.672-22.995zm-287.12 162.004c-63.476-20.344-127.74-34.826-192.77-43.584-64.997-8.754-130.78-11.797-197.335-9.27-31.326 1.188-62.163 3.54-92.42 7.243-30.308 3.7-60.8 8.87-91.47 15.684a1002.9 1002.9 0 0 0-37.108 8.967c-11.95 3.136-23.98 6.546-36.07 10.238-14.924 4.556-27.137 13.513-35.795 25.18-8.763 11.806-13.85 26.376-14.365 41.913-.498 14.985 3.817 29.496 11.764 41.635 7.923 12.103 19.473 21.932 33.476 27.604 8.542 3.46 17.288 5.108 26.152 5.24 8.524.128 16.948-1.182 25.237-3.64 39.848-11.826 80.17-20.33 120.502-25.996 43.4-6.097 86.666-8.933 129.294-9.115 33.24.143 65.518 1.65 97.25 4.587a996.34 996.34 0 0 1 93.764 13.182c40.147 7.6 79.605 17.44 118.2 30.044 38.342 12.526 75.834 27.82 112.293 46.403 11.687 5.955 23.16 12.52 34.63 19.08l12.534 7.067c17.722 9.996 37.316 12.36 55.082 8 18.032-4.423 34.124-15.646 44.526-32.738 9.66-15.88 12.948-36.447 8.243-55.664-4.234-17.294-14.766-33.56-32.715-44.523l-.446-.273-8.235-4.997c-28.98-17.236-58.948-32.648-89.812-46.373-30.756-13.676-62.248-25.592-94.394-35.893zm-191.9 196.323c-47.737-7.345-96.365-10.9-145.74-11.43h-1l-30.3 1.564-68.23 4.116c-29.252 2.474-58.725 6.207-88.36 10.977-29.297 4.716-58.374 10.42-87.256 16.904-2.27.5-4.643 1.067-7.444 1.838h-.063c-2.794.77-5.567 1.656-8.268 2.74-13.7 5.503-24.266 15.297-30.764 27.478-6.433 12.06-8.8 26.36-6.118 41a59.73 59.73 0 0 0 20.85 35.468 59.76 59.76 0 0 0 38.711 13.613c4.468-.048 8.84-.497 13.122-1.162 4.02-.625 7.9-1.433 11.716-2.272 34.426-7.622 69.15-13.894 104.2-18.624 34.92-4.7 70.005-7.857 105.26-9.242a868.88 868.88 0 0 1 81.42.6c26.787 1.463 53.753 4.25 80.894 8.405 43.82 6.712 86.217 17.037 127.065 31.294 40.86 14.262 80.386 32.518 118.473 55.094l.01-.02 1.896 1.133c3.84 2.303 7.697 4.62 11.928 6.484a61.35 61.35 0 0 0 43.318 2.406c13.845-4.368 26.122-13.657 34.013-26.933 8.023-13.492 10.402-28.854 7.65-43.232-2.747-14.35-10.652-27.707-23.2-37.237-4.363-3.313-8.22-5.604-12.058-7.88l-1.142-.678-.01.02c-23.425-13.95-47.5-26.58-72.233-37.917-24.716-11.333-50.006-21.34-75.844-30.054-46.96-15.837-94.485-27.078-142.504-34.466z" fill="#fffffe"/></svg>
